<svg width="49" height="48" viewBox="0 0 49 48" fill="none" xmlns="http://www.w3.org/2000/svg">
<path d="M47.1927 12.1301C48.4555 10.688 49.0988 8.82278 48.9877 6.92595C48.8765 5.02912 48.0196 3.24821 46.5967 1.95708C45.1738 0.66594 43.2957 -0.0350172 41.3565 0.00134733C39.4173 0.0377119 37.5679 0.808571 36.1965 2.15211C36.1201 2.22697 36.0522 2.30965 35.9938 2.39872L29.0863 9.55506L8.01273 2.04778C7.74446 1.95219 7.4539 1.93361 7.17521 1.99421C6.89652 2.05481 6.64128 2.19209 6.43949 2.3899L0.439539 8.2674C0.282651 8.42112 0.162531 8.60701 0.0878373 8.81169C0.0131438 9.01637 -0.0142619 9.23474 0.00759477 9.45104C0.0294515 9.66735 0.100026 9.87622 0.214233 10.0626C0.328439 10.2489 0.483431 10.4082 0.668037 10.5288L17.1454 21.2895L12.8784 25.4696H7.49974C7.30277 25.4696 7.10773 25.5077 6.92577 25.5815C6.74381 25.6554 6.57848 25.7637 6.43924 25.9001L0.439289 31.7776C0.258908 31.9544 0.127517 32.1732 0.0575378 32.4135C-0.0124412 32.6539 -0.0186954 32.9077 0.0393662 33.151C0.0974278 33.3944 0.217887 33.6192 0.389354 33.8042C0.560821 33.9893 0.777631 34.1284 1.01929 34.2085L10.7692 37.4399L14.0792 47.0026C14.1611 47.2392 14.3032 47.4514 14.4922 47.6192C14.6811 47.787 14.9106 47.9048 15.159 47.9616C15.4073 48.0183 15.6663 48.0121 15.9116 47.9435C16.1568 47.8749 16.3801 47.7462 16.5604 47.5695L22.5604 41.692C22.6997 41.5556 22.8101 41.3936 22.8855 41.2154C22.9609 41.0371 22.9997 40.8461 22.9996 40.6532V35.4259L27.2811 31.6153L38.261 47.3596C38.3854 47.538 38.5484 47.6872 38.7384 47.7968C38.9284 47.9064 39.1408 47.9736 39.3603 47.9937C39.5798 48.0137 39.8012 47.9861 40.0086 47.9128C40.216 47.8395 40.4044 47.7223 40.5602 47.5695L46.5602 41.692C46.7621 41.4943 46.9022 41.2443 46.964 40.9713C47.0258 40.6983 47.0068 40.4137 46.9092 40.1509L39.2473 19.5106L46.9392 12.4355C47.0374 12.3453 47.1227 12.2426 47.1929 12.1301H47.1927ZM44.6815 10.4646C44.6456 10.4997 44.6119 10.5362 44.5802 10.5741L36.4728 18.0312C36.2588 18.228 36.1085 18.482 36.0405 18.7616C35.9725 19.0413 35.9897 19.3344 36.09 19.6046L43.7635 40.2758L39.7177 44.2389L28.7863 28.5641C28.6654 28.3906 28.5078 28.2446 28.3243 28.1358C28.1409 28.027 27.9357 27.9581 27.7227 27.9335C27.5097 27.909 27.2938 27.9296 27.0896 27.9937C26.8854 28.0579 26.6976 28.1642 26.5388 28.3055L20.4911 33.6883C20.3364 33.826 20.2127 33.9939 20.1281 34.1811C20.0434 34.3684 19.9997 34.5709 19.9996 34.7757V40.0446L16.1454 43.8204L13.3722 35.8089C13.2982 35.5951 13.1749 35.4009 13.0119 35.2413C12.8489 35.0818 12.6505 34.9611 12.4322 34.8888L4.26801 32.1827L8.12123 28.4084H13.4997C13.6967 28.4084 13.8918 28.3704 14.0738 28.2965C14.2558 28.2226 14.4212 28.1143 14.5604 27.9778L20.5604 22.1003C20.7173 21.9466 20.8374 21.7607 20.9121 21.5561C20.9868 21.3514 21.0142 21.133 20.9923 20.9167C20.9705 20.7004 20.8999 20.4915 20.7857 20.3052C20.6715 20.1188 20.5165 19.9596 20.3319 19.839L3.85451 9.07825L7.88498 5.12955L28.9873 12.6466C29.2623 12.7445 29.5605 12.7615 29.8452 12.6955C30.13 12.6295 30.3888 12.4833 30.5898 12.2751L38.5173 4.06156C38.5385 4.03952 38.559 4.01674 38.5788 3.99397C39.4632 3.25416 40.6057 2.87852 41.7666 2.94581C42.9276 3.01309 44.0169 3.51808 44.8061 4.35488C45.5954 5.19168 46.0232 6.2953 46 7.43434C45.9767 8.57338 45.5042 9.65937 44.6815 10.4646Z" fill="#8D99AE"/>
</svg>
