<svg width="80" height="80" viewBox="0 0 80 80" fill="none" xmlns="http://www.w3.org/2000/svg">
<path d="M40 21L43.824 28.6674L52 29.7254L46 35.4816L47.2 44L40 39.2076L32.8 44L34 35.4816L28 29.7254L36.4 28.6674L40 21Z" fill="#8D99AE"/>
<path d="M40 69L23.128 48.3914C22.8936 48.0819 22.6616 47.7705 22.432 47.4571C19.55 43.5251 17.993 38.7224 18 33.7857C18 27.7426 20.3179 21.9469 24.4437 17.6738C28.5695 13.4006 34.1652 11 40 11C45.8348 11 51.4305 13.4006 55.5563 17.6738C59.6821 21.9469 62 27.7426 62 33.7857C62.007 38.7202 60.4507 43.5207 57.57 47.4509L57.568 47.4571C57.568 47.4571 56.968 48.2733 56.878 48.3831L40 69ZM25.624 44.9611C25.628 44.9611 26.092 45.5991 26.198 45.7358L40 62.5951L53.82 45.713C53.908 45.5991 54.376 44.9569 54.378 44.9549C56.7323 41.7423 58.0046 37.8188 58 33.7857C58 28.8413 56.1036 24.0994 52.7279 20.6032C49.3523 17.107 44.7739 15.1429 40 15.1429C35.2261 15.1429 30.6477 17.107 27.2721 20.6032C23.8964 24.0994 22 28.8413 22 33.7857C21.9958 37.8214 23.2696 41.7471 25.626 44.9611H25.624Z" fill="#8D99AE"/>
</svg>
