<svg width="20" height="19" viewBox="0 0 20 19" fill="none" xmlns="http://www.w3.org/2000/svg">
<path d="M19.084 4.9893C19.0822 4.98635 19.0809 4.98324 19.079 4.98028C19.0781 4.97897 19.0772 4.97782 19.0763 4.97659C18.9627 4.80053 18.7993 4.65503 18.6028 4.55507L10.6224 0.496456C10.4321 0.400422 10.2179 0.350006 9.99995 0.350006C9.78206 0.350006 9.56779 0.400422 9.37753 0.496456L1.39714 4.55507C1.21479 4.64809 1.06075 4.78048 0.948784 4.94044L0.948603 4.9406C0.939897 4.95298 0.930919 4.9652 0.922757 4.97799C0.921669 4.97971 0.920309 4.98127 0.919221 4.98307C0.917407 4.98594 0.916137 4.98897 0.914414 4.99184C0.806798 5.16382 0.750163 5.35803 0.75 5.55562V13.6435C0.750176 13.8471 0.810188 14.0471 0.923893 14.2229C1.0376 14.3987 1.20092 14.544 1.39714 14.644L9.37753 18.7026C9.5458 18.7871 9.73316 18.8357 9.92537 18.8448C9.9488 18.8479 9.97242 18.8497 9.9961 18.85H10.001C10.0265 18.8498 10.052 18.8481 10.0772 18.8447C10.2685 18.8353 10.4549 18.7867 10.6224 18.7026L18.6028 14.644C18.799 14.544 18.9624 14.3987 19.0761 14.2229C19.1899 14.0471 19.2499 13.8471 19.25 13.6434V5.55562C19.2498 5.35707 19.1926 5.16196 19.084 4.98938V4.9893ZM9.91113 1.35401C9.9383 1.34032 9.96889 1.33313 10 1.33313C10.0311 1.33313 10.0617 1.34032 10.0889 1.35401L17.6001 5.17403L14.4561 6.78903L6.76522 2.95385L9.91113 1.35401ZM10.0834 9.03504L2.40811 5.16977L5.64978 3.52123L13.3462 7.35912L10.0834 9.03504ZM1.93074 13.7863C1.90268 13.7721 1.87932 13.7513 1.86307 13.7262C1.84681 13.7011 1.83824 13.6725 1.83824 13.6434V6.00904L9.53913 9.88719L9.46395 17.6177L1.93074 13.7863ZM18.0693 13.7863L10.5524 17.6093L10.6275 9.88727L13.9015 8.20545V11.6092C13.9015 11.7397 13.9588 11.8648 14.0609 11.9571C14.1629 12.0493 14.3013 12.1011 14.4456 12.1011C14.5899 12.1011 14.7283 12.0493 14.8304 11.9571C14.9324 11.8648 14.9897 11.7397 14.9897 11.6092V7.64651L18.1618 6.01724V13.6434C18.1617 13.6725 18.1532 13.7011 18.1369 13.7262C18.1207 13.7513 18.0973 13.7721 18.0693 13.7863Z" fill="#41424D"/>
</svg>
