<svg xmlns="http://www.w3.org/2000/svg" viewBox="0 0 163.72 121.08"><defs><style>.cls-1{fill:none;}.cls-1,.cls-2{stroke:#222220;stroke-linecap:round;stroke-linejoin:round;stroke-width:4.98px;}.cls-2{fill:#fff;}</style></defs><title>Carrito</title><g id="Capa_2" data-name="Capa 2"><g id="Capa_1-2" data-name="Capa 1"><polygon class="cls-1" points="161.23 15.68 152.4 44.57 150.9 49.47 147.22 61.51 146.03 65.42 141.15 81.36 64.62 81.36 59.83 65.42 58.65 61.51 55.03 49.47 53.55 44.57 44.87 15.68 161.23 15.68"/><polygon class="cls-1" points="161.23 15.68 152.4 44.57 147.22 61.51 141.15 81.36 86.13 81.36 68.33 15.68 161.23 15.68"/><polygon class="cls-1" points="137.81 15.68 119.64 81.36 64.62 81.36 58.65 61.51 53.55 44.57 44.87 15.68 137.81 15.68"/><polygon class="cls-1" points="150.9 49.47 147.22 61.51 146.03 65.42 141.15 81.36 64.62 81.36 59.83 65.42 58.65 61.51 55.03 49.47 150.9 49.47"/><line class="cls-1" x1="50.71" y1="32.69" x2="156.03" y2="32.69"/><polygon class="cls-1" points="146.03 65.42 141.15 81.36 64.62 81.36 59.83 65.42 146.03 65.42"/><path class="cls-1" d="M145.24,104.92a13.67,13.67,0,1,1-13.68-13.67A13.68,13.68,0,0,1,145.24,104.92Z"/><path class="cls-1" d="M138.18,104.92a6.62,6.62,0,1,1-6.62-6.62A6.62,6.62,0,0,1,138.18,104.92Z"/><path class="cls-1" d="M87.29,104.14A13.67,13.67,0,1,1,73.62,90.47,13.67,13.67,0,0,1,87.29,104.14Z"/><path class="cls-1" d="M80.24,104.14a6.62,6.62,0,1,1-6.62-6.61A6.62,6.62,0,0,1,80.24,104.14Z"/><line class="cls-2" x1="58.27" y1="90.47" x2="148.08" y2="90.47"/><line class="cls-1" x1="58.27" y1="90.47" x2="32.33" y2="6.58"/><path class="cls-1" d="M2.49,6.58c0-2.26,1.43-4.09,3.18-4.09H27.93c1.75,0,3.18,1.83,3.18,4.09h0c0,2.25-1.43,4.08-3.18,4.08H5.67c-1.75,0-3.18-1.83-3.18-4.08Z"/></g></g></svg>