<svg xmlns="http://www.w3.org/2000/svg" viewBox="0 0 163.85 144.67"><defs><style>.cls-1{fill:none;}.cls-1,.cls-2{stroke:#222220;stroke-linecap:round;stroke-linejoin:round;stroke-width:4.98px;}.cls-2{fill:#fff;}</style></defs><title>Casillero</title><g id="Capa_2" data-name="Capa 2"><g id="Capa_1-2" data-name="Capa 1"><path class="cls-1" d="M153.87,44.08v62.35c0,3.94-3.63,7.13-8.1,7.13H80.47c-4.48,0-8.1-3.19-8.1-7.13V44.08c0-3.94,3.62-7.13,8.1-7.13h65.3C150.24,37,153.87,40.14,153.87,44.08Z"/><path class="cls-1" d="M103.13,80.93c0-13.25,0-29.56,0-42.63"/><line class="cls-2" x1="54.25" y1="123.13" x2="161.36" y2="123.13"/><polyline class="cls-1" points="54.25 109.2 54.25 8.21 47.77 8.2"/><path class="cls-1" d="M2.49,8.2c0-3.16,2.25-5.71,5-5.71H42.74c2.78,0,5,2.55,5,5.71h0c0,3.16-2.25,5.72-5,5.72H7.52c-2.78,0-5-2.56-5-5.72Z"/><path class="cls-1" d="M76,120.44A21.74,21.74,0,1,1,54.25,98.71,21.73,21.73,0,0,1,76,120.44Z"/><path class="cls-1" d="M66.5,120.44a12.26,12.26,0,1,1-12.25-12.25A12.26,12.26,0,0,1,66.5,120.44Z"/><line class="cls-1" x1="125.36" y1="36.95" x2="125.36" y2="80.37"/></g></g></svg>