<svg xmlns="http://www.w3.org/2000/svg" viewBox="0 0 146.59 163.85"><defs><style>.cls-1,.cls-2{fill:none;stroke:#222220;stroke-linecap:round;stroke-linejoin:round;}.cls-1{stroke-width:4.98px;}.cls-2{stroke-width:4.36px;}.cls-3{fill:#222220;}</style></defs><title>Puerta</title><g id="Capa_2" data-name="Capa 2"><g id="Capa_1-2" data-name="Capa 1"><path class="cls-1" d="M133.38,80.47V22c0-8.13-7.49-14.74-16.72-14.74H97.24"/><path class="cls-1" d="M144.1,87.79v64.05c0,4-3.72,7.32-8.32,7.32H74.26c5.18-2.73,8.65-7.72,8.65-13.43V80.47h52.87C140.38,80.47,144.1,83.75,144.1,87.79Z"/><path class="cls-1" d="M92,81.86c0,13.42,0,30.18,0,43.8.83,0,22.84,0,22.84,0"/><line class="cls-1" x1="114.82" y1="125.07" x2="114.82" y2="80.47"/><line class="cls-2" x1="113.54" y1="140.44" x2="135.48" y2="140.44"/><line class="cls-2" x1="117.65" y1="147.75" x2="131.37" y2="147.75"/><path class="cls-1" d="M82.91,18.11V145.73c0,5.71-3.47,10.7-8.65,13.43a19.42,19.42,0,0,1-9.07,2.2l-45-7.82c-10.24-2.88-17.73-7-17.73-15.62V18.11c0-8.62,6.34-9.54,16.1-10.82l46.6-4.8C75,2.49,82.91,9.49,82.91,18.11Z"/><path class="cls-3" d="M73.79,78.7a6.7,6.7,0,1,1-6.7-6.7A6.7,6.7,0,0,1,73.79,78.7Z"/></g></g></svg>