<svg xmlns="http://www.w3.org/2000/svg" viewBox="0 0 156.47 163.85"><defs><style>.cls-1{fill:none;}.cls-1,.cls-2{stroke:#222220;stroke-linecap:round;stroke-linejoin:round;stroke-width:4.98px;}.cls-2{fill:#fff;}</style></defs><title>Re-empaque</title><g id="Capa_2" data-name="Capa 2"><g id="Capa_1-2" data-name="Capa 1"><polygon class="cls-1" points="2.49 46.22 78.23 2.49 153.98 46.22 153.98 117.63 78.23 161.35 2.49 117.63 2.49 46.22"/><polygon class="cls-1" points="153.98 46.22 78.37 90.05 2.62 46.32 78.23 2.49 153.98 46.22"/><polygon class="cls-1" points="127.58 61.45 104.63 74.82 28.9 31.09 51.84 17.72 127.58 61.45"/><polygon class="cls-1" points="78.37 161.35 78.37 90.05 153.98 46.22 153.98 117.63 78.37 161.35"/><polygon class="cls-1" points="104.67 104.6 104.67 74.88 127.58 61.5 127.58 91.32 104.67 104.6"/><line class="cls-2" x1="23.9" y1="112.76" x2="23.9" y2="78.44"/><polyline class="cls-1" points="15.82 87.49 24.52 78.44 31.98 91.05"/><line class="cls-2" x1="53.56" y1="125.37" x2="53.56" y2="93.38"/><polyline class="cls-1" points="45.47 100.09 54.17 91.05 61.63 103.65"/></g></g></svg>