<svg xmlns="http://www.w3.org/2000/svg" viewBox="0 0 163.85 120.4"><defs><style>.cls-1,.cls-2{fill:none;}.cls-1,.cls-2,.cls-3,.cls-4,.cls-6{stroke:#222220;}.cls-1,.cls-2,.cls-3,.cls-4,.cls-5,.cls-6{stroke-linecap:round;stroke-linejoin:round;}.cls-1,.cls-4,.cls-6{stroke-width:4.98px;}.cls-2{stroke-width:4.36px;}.cls-3,.cls-4{fill:#fff;}.cls-3{stroke-width:6.23px;}.cls-5{fill:#222220;stroke:#21211f;stroke-width:2.49px;}.cls-6{fill:#21211f;}</style></defs><title>Timer</title><g id="Capa_2" data-name="Capa 2"><g id="Capa_1-2" data-name="Capa 1"><path class="cls-1" d="M50.77,2.49h98.39c6.74,0,12.2,4.81,12.2,10.74v93.93c0,5.93-5.46,10.74-12.2,10.74H50.77"/><line class="cls-2" x1="111.88" y1="90.45" x2="144.06" y2="90.45"/><line class="cls-2" x1="117.92" y1="101.17" x2="138.03" y2="101.17"/><path class="cls-1" d="M94.76,71.77A46.14,46.14,0,1,1,48.63,25.63,46.13,46.13,0,0,1,94.76,71.77Z"/><line class="cls-3" x1="48.63" y1="24.4" x2="48.63" y2="13.61"/><line class="cls-3" x1="41.17" y1="13.61" x2="55.4" y2="13.61"/><line class="cls-4" x1="80.1" y1="35.37" x2="86.5" y2="28.97"/><line class="cls-4" x1="81.46" y1="23.94" x2="91.53" y2="34"/><line class="cls-4" x1="48.63" y1="32.17" x2="48.63" y2="39.8"/><line class="cls-4" x1="48.63" y1="103.73" x2="48.63" y2="111.36"/><line class="cls-4" x1="17.78" y1="71.62" x2="10.15" y2="71.62"/><line class="cls-4" x1="89.1" y1="69.08" x2="81.46" y2="69.08"/><line class="cls-4" x1="48.15" y1="71.77" x2="38.37" y2="81.55"/><polygon class="cls-5" points="70.83 49.74 53.45 77.06 43.51 67.13 70.83 49.74"/><path class="cls-6" d="M56.08,71.62a7.46,7.46,0,1,1-7.45-7.46A7.46,7.46,0,0,1,56.08,71.62Z"/><polyline class="cls-1" points="113.87 2.49 113.87 53.79 140.18 53.79 140.18 2.49"/></g></g></svg>