<svg width="20" height="20" viewBox="0 0 20 20" fill="none" xmlns="http://www.w3.org/2000/svg">
<path fill-rule="evenodd" clip-rule="evenodd" d="M9.97708 16.9735C7.27791 16.9735 4.97208 16.5652 4.97208 14.9302C4.97208 13.2952 7.26291 11.8718 9.97708 11.8718C12.6762 11.8718 14.9821 13.2818 14.9821 14.916C14.9821 16.5502 12.6912 16.9735 9.97708 16.9735Z" stroke="#41424D" stroke-width="1.5" stroke-linecap="round" stroke-linejoin="round"/>
<path fill-rule="evenodd" clip-rule="evenodd" d="M9.97708 9.54059C11.7487 9.54059 13.1854 8.10476 13.1854 6.33309C13.1854 4.56142 11.7487 3.12476 9.97708 3.12476C8.20542 3.12476 6.76875 4.56142 6.76875 6.33309C6.76375 8.09809 8.18875 9.53476 9.95458 9.54059H9.97708Z" stroke="#41424D" stroke-width="1.5" stroke-linecap="round" stroke-linejoin="round"/>
<path d="M15.3018 8.65968C16.3327 8.38385 17.0927 7.44385 17.0927 6.32468C17.0927 5.15718 16.2652 4.18218 15.1635 3.95718" stroke="#41424D" stroke-width="1.5" stroke-linecap="round" stroke-linejoin="round"/>
<path d="M15.786 11.287C17.2476 11.287 18.496 12.2779 18.496 13.1629C18.496 13.6837 18.0651 14.2512 17.4118 14.4045" stroke="#41424D" stroke-width="1.5" stroke-linecap="round" stroke-linejoin="round"/>
<path d="M4.65315 8.65968C3.62148 8.38385 2.86148 7.44385 2.86148 6.32468C2.86148 5.15718 3.68981 4.18218 4.79065 3.95718" stroke="#41424D" stroke-width="1.5" stroke-linecap="round" stroke-linejoin="round"/>
<path d="M4.16816 11.287C2.70649 11.287 1.45816 12.2779 1.45816 13.1629C1.45816 13.6837 1.88899 14.2512 2.54316 14.4045" stroke="#41424D" stroke-width="1.5" stroke-linecap="round" stroke-linejoin="round"/>
</svg>
