<svg width="18" height="18" viewBox="0 0 18 18" fill="none" xmlns="http://www.w3.org/2000/svg">
<path fill-rule="evenodd" clip-rule="evenodd" d="M8.99591 13.5222C8.65091 13.5222 8.37091 13.2422 8.37091 12.8972V10.7831C8.37091 10.4381 8.65091 10.1581 8.99591 10.1581C9.34091 10.1581 9.62091 10.4381 9.62091 10.7831V12.8972C9.62091 13.2422 9.34091 13.5222 8.99591 13.5222Z" fill="#41424D"/>
<mask id="mask0" mask-type="alpha" maskUnits="userSpaceOnUse" x="0" y="2" width="18" height="10">
<path fill-rule="evenodd" clip-rule="evenodd" d="M0.666832 2.81668H17.325V11.4092H0.666832V2.81668Z" fill="white"/>
</mask>
<g mask="url(#mask0)">
<path fill-rule="evenodd" clip-rule="evenodd" d="M1.91683 8.49418C3.89683 9.57001 6.3935 10.1592 8.99183 10.1592C11.5952 10.1592 14.0943 9.57001 16.0752 8.49418V5.99251C16.0752 4.93001 15.216 4.06668 14.1585 4.06668H3.84183C2.78017 4.06668 1.91683 4.92668 1.91683 5.98418V8.49418ZM8.99183 11.4092C6.03766 11.4092 3.19017 10.6942 0.975999 9.39751C0.784332 9.28585 0.666832 9.08085 0.666832 8.85835V5.98418C0.666832 4.23751 2.091 2.81668 3.84183 2.81668H14.1585C15.9052 2.81668 17.3252 4.24085 17.3252 5.99251V8.85835C17.3252 9.08085 17.2068 9.28585 17.016 9.39751C14.8018 10.6942 11.9518 11.4092 8.99183 11.4092Z" fill="#41424D"/>
</g>
<mask id="mask1" mask-type="alpha" maskUnits="userSpaceOnUse" x="5" y="0" width="8" height="5">
<path fill-rule="evenodd" clip-rule="evenodd" d="M5.45425 0.66684H12.5376V4.06342H5.45425V0.66684Z" fill="white"/>
</mask>
<g mask="url(#mask1)">
<path fill-rule="evenodd" clip-rule="evenodd" d="M11.9126 4.06342C11.5676 4.06342 11.2876 3.78342 11.2876 3.43842V3.13341C11.2876 2.46258 10.7417 1.91675 10.0709 1.91675H7.92091C7.25008 1.91675 6.70425 2.46258 6.70425 3.13341V3.43842C6.70425 3.78342 6.42425 4.06342 6.07925 4.06342C5.73425 4.06342 5.45425 3.78342 5.45425 3.43842V3.13341C5.45425 1.77341 6.56091 0.666748 7.92091 0.666748H10.0709C11.4309 0.666748 12.5376 1.77341 12.5376 3.13341V3.43842C12.5376 3.78342 12.2576 4.06342 11.9126 4.06342Z" fill="#41424D"/>
</g>
<path fill-rule="evenodd" clip-rule="evenodd" d="M13.8291 17.1168H4.16241C2.43325 17.1168 0.977413 15.766 0.84658 14.041L0.688247 11.9502C0.662413 11.606 0.920747 11.3052 1.26491 11.2793C1.61075 11.2668 1.90908 11.511 1.93575 11.856L2.09325 13.946C2.17491 15.0227 3.08325 15.8668 4.16241 15.8668H13.8291C14.9082 15.8668 15.8174 15.0227 15.8982 13.946L16.0566 11.856C16.0832 11.511 16.3891 11.266 16.7274 11.2793C17.0716 11.3052 17.3291 11.606 17.3032 11.9502L17.1449 14.041C17.0141 15.766 15.5582 17.1168 13.8291 17.1168Z" fill="#41424D"/>
</svg>
